<svg xmlns="http://www.w3.org/2000/svg" xmlns:xlink="http://www.w3.org/1999/xlink" width="2245" zoomAndPan="magnify" viewBox="0 0 1683.75 1190.250009" height="1587" preserveAspectRatio="xMidYMid meet" version="1.0"><defs><clipPath id="10d419b00c"><path d="M 33.527344 32.988281 L 49.539062 32.988281 L 49.539062 37.191406 L 33.527344 37.191406 Z M 45.335938 37.191406 L 49.539062 37.191406 L 49.539062 44.792969 L 45.335938 44.792969 Z M 33.527344 37.191406 L 37.730469 37.191406 L 37.730469 44.792969 L 33.527344 44.792969 Z M 33.527344 44.792969 L 49.539062 44.792969 L 49.539062 48.996094 L 33.527344 48.996094 Z M 33.527344 44.792969 " clip-rule="nonzero"/></clipPath><clipPath id="a114e56845"><path d="M 0.613281 0.25 L 1464.820312 0.25 L 1464.820312 993.125 L 0.613281 993.125 Z M 0.613281 0.25 " clip-rule="nonzero"/></clipPath><clipPath id="712e5ed620"><path d="M 1460.550781 960.339844 L 1452.375 960.339844 L 1452.375 748.980469 L 1448.167969 748.980469 L 1448.167969 960.339844 L 1442.039062 960.339844 L 1442.039062 785.746094 L 1442.023438 785.746094 L 1442.023438 207.625 L 1442.039062 207.625 L 1442.039062 33.03125 L 1448.167969 33.03125 L 1448.167969 244.390625 L 1452.375 244.390625 L 1452.375 33.03125 L 1460.550781 33.03125 L 1460.550781 265.1875 L 1464.753906 265.1875 L 1464.753906 28.828125 L 1452.378906 28.828125 L 1452.378906 26.996094 L 1464.636719 26.996094 L 1464.636719 22.789062 L 1452.378906 22.789062 L 1452.378906 20.980469 L 1464.753906 20.980469 L 1464.753906 0.25 L 1444.019531 0.25 L 1444.019531 12.59375 L 1442.039062 12.59375 L 1442.039062 0.742188 L 1437.832031 0.742188 L 1437.832031 12.59375 L 1436.269531 12.59375 L 1436.269531 0.25 L 1199.832031 0.25 L 1199.832031 4.457031 L 1432.070312 4.457031 L 1432.070312 12.59375 L 1215.40625 12.59375 L 1215.40625 16.796875 L 1432.070312 16.796875 L 1432.070312 23.039062 L 33.34375 23.039062 L 33.34375 16.796875 L 250.007812 16.796875 L 250.007812 12.59375 L 33.34375 12.59375 L 33.34375 4.457031 L 265.582031 4.457031 L 265.582031 0.25 L 29.140625 0.25 L 29.140625 12.59375 L 27.578125 12.59375 L 27.578125 0.742188 L 23.371094 0.742188 L 23.371094 12.59375 L 21.390625 12.59375 L 21.390625 0.25 L 0.65625 0.25 L 0.65625 20.980469 L 13.03125 20.980469 L 13.03125 22.789062 L 0.777344 22.789062 L 0.777344 26.996094 L 13.035156 26.996094 L 13.035156 28.828125 L 0.65625 28.828125 L 0.65625 265.1875 L 4.859375 265.1875 L 4.859375 33.03125 L 13.035156 33.03125 L 13.035156 244.390625 L 17.242188 244.390625 L 17.242188 33.03125 L 23.082031 33.03125 L 23.082031 960.335938 L 17.242188 960.335938 L 17.242188 748.976562 L 13.035156 748.976562 L 13.035156 960.335938 L 4.859375 960.335938 L 4.859375 728.179688 L 0.65625 728.179688 L 0.65625 964.539062 L 13.03125 964.539062 L 13.03125 966.371094 L 0.777344 966.371094 L 0.777344 970.578125 L 13.035156 970.578125 L 13.035156 972.386719 L 0.65625 972.386719 L 0.65625 993.117188 L 21.390625 993.117188 L 21.390625 980.773438 L 23.371094 980.773438 L 23.371094 992.625 L 27.578125 992.625 L 27.578125 980.773438 L 29.140625 980.773438 L 29.140625 993.117188 L 265.574219 993.117188 L 265.574219 988.910156 L 33.34375 988.910156 L 33.34375 980.773438 L 250.007812 980.773438 L 250.007812 976.570312 L 33.34375 976.570312 L 33.34375 970.234375 L 1432.066406 970.234375 L 1432.066406 976.570312 L 1215.402344 976.570312 L 1215.402344 980.773438 L 1432.066406 980.773438 L 1432.066406 988.910156 L 1199.828125 988.910156 L 1199.828125 993.117188 L 1436.265625 993.117188 L 1436.265625 980.773438 L 1437.828125 980.773438 L 1437.828125 992.625 L 1442.035156 992.625 L 1442.035156 980.773438 L 1444.015625 980.773438 L 1444.015625 993.117188 L 1464.75 993.117188 L 1464.75 972.386719 L 1452.375 972.386719 L 1452.375 970.578125 L 1464.632812 970.578125 L 1464.632812 966.371094 L 1452.375 966.371094 L 1452.375 964.539062 L 1464.75 964.539062 L 1464.75 728.179688 L 1460.542969 728.179688 Z M 1448.21875 4.457031 L 1460.550781 4.457031 L 1460.550781 16.777344 L 1452.371094 16.777344 L 1452.371094 12.597656 L 1448.21875 12.597656 Z M 1442.039062 16.804688 L 1444.019531 16.804688 L 1444.019531 20.980469 L 1448.167969 20.980469 L 1448.167969 22.792969 L 1442.039062 22.792969 Z M 1442.039062 27.53125 L 1442.039062 26.996094 L 1448.167969 26.996094 L 1448.167969 28.828125 L 1442.039062 28.828125 Z M 17.183594 12.59375 L 13.035156 12.59375 L 13.035156 16.773438 L 4.859375 16.773438 L 4.859375 4.457031 L 17.191406 4.457031 L 17.191406 12.59375 Z M 33.347656 965.53125 L 33.347656 964.546875 L 33.355469 964.546875 L 33.355469 960.339844 L 27.789062 960.339844 L 27.789062 33.03125 L 33.351562 33.03125 L 33.351562 28.824219 L 33.34375 28.824219 L 33.34375 27.746094 L 1432.058594 27.746094 L 1432.058594 28.824219 L 1432.050781 28.824219 L 1432.050781 33.03125 L 1437.308594 33.03125 L 1437.308594 960.335938 L 1432.050781 960.335938 L 1432.050781 964.542969 L 1432.058594 964.542969 L 1432.058594 965.523438 L 33.347656 965.523438 Z M 27.789062 27.75 L 29.140625 27.75 L 29.140625 28.828125 L 27.789062 28.828125 Z M 27.789062 965.53125 L 27.789062 964.546875 L 29.140625 964.546875 L 29.140625 965.53125 Z M 1437.308594 27.75 L 1437.308594 28.828125 L 1436.265625 28.828125 L 1436.265625 27.75 Z M 1436.265625 964.546875 L 1437.308594 964.546875 L 1437.308594 965.53125 L 1436.265625 965.53125 Z M 1436.265625 16.796875 L 1437.828125 16.796875 L 1437.828125 23.039062 L 1436.265625 23.039062 Z M 27.578125 16.796875 L 29.140625 16.796875 L 29.140625 23.039062 L 27.578125 23.039062 Z M 17.238281 20.980469 L 21.386719 20.980469 L 21.386719 16.804688 L 23.367188 16.804688 L 23.367188 22.796875 L 17.238281 22.796875 Z M 17.238281 28.828125 L 17.238281 26.996094 L 23.078125 26.996094 L 23.078125 28.828125 Z M 17.238281 964.546875 L 23.078125 964.546875 L 23.078125 966.382812 L 17.238281 966.382812 Z M 17.183594 988.914062 L 4.859375 988.914062 L 4.859375 976.59375 L 13.039062 976.59375 L 13.039062 980.773438 L 17.191406 980.773438 L 17.191406 988.914062 Z M 23.367188 976.574219 L 21.386719 976.574219 L 21.386719 972.394531 L 17.238281 972.394531 L 17.238281 970.582031 L 23.367188 970.582031 Z M 29.140625 976.578125 L 27.578125 976.578125 L 27.578125 970.242188 L 29.140625 970.242188 Z M 1437.832031 976.578125 L 1436.269531 976.578125 L 1436.269531 970.242188 L 1437.832031 970.242188 Z M 1448.167969 972.390625 L 1444.019531 972.390625 L 1444.019531 976.570312 L 1442.039062 976.570312 L 1442.039062 970.574219 L 1448.167969 970.574219 Z M 1448.167969 966.375 L 1442.039062 966.375 L 1442.039062 964.546875 L 1448.167969 964.546875 Z M 1460.550781 976.597656 L 1460.550781 988.917969 L 1448.21875 988.917969 L 1448.21875 980.78125 L 1452.367188 980.78125 L 1452.367188 976.605469 L 1460.550781 976.605469 Z M 1460.550781 976.597656 " clip-rule="nonzero"/></clipPath><linearGradient x1="19.410602" gradientTransform="matrix(0.43907, 0, 0, 0.438916, 0.654472, 0.251437)" y1="-27.606187" x2="3315.131415" gradientUnits="userSpaceOnUse" y2="2289.697642" id="d14efdf134"><stop stop-opacity="1" stop-color="rgb(97.24884%, 90.19928%, 49.01886%)" offset="0"/><stop stop-opacity="1" stop-color="rgb(97.24884%, 90.19928%, 49.01886%)" offset="0.0625"/><stop stop-opacity="1" stop-color="rgb(97.24884%, 90.19928%, 49.01886%)" offset="0.09375"/><stop stop-opacity="1" stop-color="rgb(97.24884%, 90.19928%, 49.01886%)" offset="0.109375"/><stop stop-opacity="1" stop-color="rgb(97.003174%, 89.752197%, 48.527527%)" offset="0.113281"/><stop stop-opacity="1" stop-color="rgb(96.759033%, 89.306641%, 48.03772%)" offset="0.117188"/><stop stop-opacity="1" stop-color="rgb(96.21582%, 88.316345%, 46.949768%)" offset="0.121094"/><stop stop-opacity="1" stop-color="rgb(95.672607%, 87.327576%, 45.861816%)" offset="0.125"/><stop stop-opacity="1" stop-color="rgb(95.129395%, 86.338806%, 44.773865%)" offset="0.128906"/><stop stop-opacity="1" stop-color="rgb(94.586182%, 85.350037%, 43.687439%)" offset="0.132812"/><stop stop-opacity="1" stop-color="rgb(94.042969%, 84.359741%, 42.599487%)" offset="0.136719"/><stop stop-opacity="1" stop-color="rgb(93.499756%, 83.370972%, 41.513062%)" offset="0.140625"/><stop stop-opacity="1" stop-color="rgb(93.031311%, 82.521057%, 40.556335%)" offset="0.144531"/><stop stop-opacity="1" stop-color="rgb(92.562866%, 81.671143%, 39.599609%)" offset="0.148438"/><stop stop-opacity="1" stop-color="rgb(92.173767%, 80.970764%, 38.781738%)" offset="0.152344"/><stop stop-opacity="1" stop-color="rgb(91.784668%, 80.270386%, 37.965393%)" offset="0.15625"/><stop stop-opacity="1" stop-color="rgb(91.395569%, 79.568481%, 37.147522%)" offset="0.160156"/><stop stop-opacity="1" stop-color="rgb(91.00647%, 78.868103%, 36.331177%)" offset="0.164063"/><stop stop-opacity="1" stop-color="rgb(90.617371%, 78.167725%, 35.513306%)" offset="0.167969"/><stop stop-opacity="1" stop-color="rgb(90.228271%, 77.467346%, 34.69696%)" offset="0.171875"/><stop stop-opacity="1" stop-color="rgb(89.839172%, 76.765442%, 33.880615%)" offset="0.175781"/><stop stop-opacity="1" stop-color="rgb(89.450073%, 76.065063%, 33.06427%)" offset="0.179688"/><stop stop-opacity="1" stop-color="rgb(89.125061%, 75.476074%, 32.394409%)" offset="0.183594"/><stop stop-opacity="1" stop-color="rgb(88.801575%, 74.887085%, 31.724548%)" offset="0.1875"/><stop stop-opacity="1" stop-color="rgb(88.557434%, 74.435425%, 31.237793%)" offset="0.191406"/><stop stop-opacity="1" stop-color="rgb(88.314819%, 73.985291%, 30.752563%)" offset="0.195313"/><stop stop-opacity="1" stop-color="rgb(88.070679%, 73.53363%, 30.265808%)" offset="0.199219"/><stop stop-opacity="1" stop-color="rgb(87.828064%, 73.083496%, 29.780579%)" offset="0.203125"/><stop stop-opacity="1" stop-color="rgb(87.583923%, 72.633362%, 29.293823%)" offset="0.207031"/><stop stop-opacity="1" stop-color="rgb(87.341309%, 72.183228%, 28.808594%)" offset="0.210938"/><stop stop-opacity="1" stop-color="rgb(87.097168%, 71.731567%, 28.321838%)" offset="0.214844"/><stop stop-opacity="1" stop-color="rgb(86.854553%, 71.281433%, 27.836609%)" offset="0.21875"/><stop stop-opacity="1" stop-color="rgb(86.610413%, 70.829773%, 27.349854%)" offset="0.222656"/><stop stop-opacity="1" stop-color="rgb(86.366272%, 70.379639%, 26.864624%)" offset="0.226563"/><stop stop-opacity="1" stop-color="rgb(86.225891%, 70.106506%, 26.583862%)" offset="0.230469"/><stop stop-opacity="1" stop-color="rgb(86.087036%, 69.833374%, 26.303101%)" offset="0.234375"/><stop stop-opacity="1" stop-color="rgb(85.974121%, 69.604492%, 26.074219%)" offset="0.238281"/><stop stop-opacity="1" stop-color="rgb(85.861206%, 69.377136%, 25.846863%)" offset="0.242188"/><stop stop-opacity="1" stop-color="rgb(85.746765%, 69.148254%, 25.617981%)" offset="0.246094"/><stop stop-opacity="1" stop-color="rgb(85.63385%, 68.919373%, 25.389099%)" offset="0.25"/><stop stop-opacity="1" stop-color="rgb(85.519409%, 68.690491%, 25.160217%)" offset="0.253906"/><stop stop-opacity="1" stop-color="rgb(85.406494%, 68.461609%, 24.932861%)" offset="0.257812"/><stop stop-opacity="1" stop-color="rgb(85.292053%, 68.232727%, 24.703979%)" offset="0.261719"/><stop stop-opacity="1" stop-color="rgb(85.179138%, 68.005371%, 24.475098%)" offset="0.265625"/><stop stop-opacity="1" stop-color="rgb(85.064697%, 67.776489%, 24.246216%)" offset="0.269531"/><stop stop-opacity="1" stop-color="rgb(84.951782%, 67.547607%, 24.017334%)" offset="0.273438"/><stop stop-opacity="1" stop-color="rgb(84.837341%, 67.318726%, 23.788452%)" offset="0.277344"/><stop stop-opacity="1" stop-color="rgb(84.724426%, 67.09137%, 23.561096%)" offset="0.28125"/><stop stop-opacity="1" stop-color="rgb(84.681702%, 67.00592%, 23.442078%)" offset="0.296875"/><stop stop-opacity="1" stop-color="rgb(84.603882%, 66.850281%, 23.217773%)" offset="0.3125"/><stop stop-opacity="1" stop-color="rgb(84.532166%, 66.708374%, 23.005676%)" offset="0.322944"/><stop stop-opacity="1" stop-color="rgb(84.49707%, 66.638184%, 22.900391%)" offset="0.328125"/><stop stop-opacity="1" stop-color="rgb(84.460449%, 66.566467%, 22.795105%)" offset="0.34375"/><stop stop-opacity="1" stop-color="rgb(84.47113%, 66.578674%, 22.737122%)" offset="0.375"/><stop stop-opacity="1" stop-color="rgb(84.65271%, 66.911316%, 23.059082%)" offset="0.378906"/><stop stop-opacity="1" stop-color="rgb(84.786987%, 67.160034%, 23.335266%)" offset="0.382812"/><stop stop-opacity="1" stop-color="rgb(84.919739%, 67.408752%, 23.61145%)" offset="0.386719"/><stop stop-opacity="1" stop-color="rgb(85.054016%, 67.658997%, 23.887634%)" offset="0.390625"/><stop stop-opacity="1" stop-color="rgb(85.186768%, 67.907715%, 24.162292%)" offset="0.394531"/><stop stop-opacity="1" stop-color="rgb(85.319519%, 68.156433%, 24.438477%)" offset="0.398438"/><stop stop-opacity="1" stop-color="rgb(85.452271%, 68.405151%, 24.713135%)" offset="0.402344"/><stop stop-opacity="1" stop-color="rgb(85.586548%, 68.65387%, 24.989319%)" offset="0.40625"/><stop stop-opacity="1" stop-color="rgb(85.719299%, 68.902588%, 25.265503%)" offset="0.410156"/><stop stop-opacity="1" stop-color="rgb(85.853577%, 69.152832%, 25.541687%)" offset="0.414063"/><stop stop-opacity="1" stop-color="rgb(85.986328%, 69.40155%, 25.816345%)" offset="0.417969"/><stop stop-opacity="1" stop-color="rgb(86.120605%, 69.650269%, 26.092529%)" offset="0.421875"/><stop stop-opacity="1" stop-color="rgb(86.253357%, 69.898987%, 26.367188%)" offset="0.425781"/><stop stop-opacity="1" stop-color="rgb(86.387634%, 70.149231%, 26.643372%)" offset="0.429688"/><stop stop-opacity="1" stop-color="rgb(86.520386%, 70.397949%, 26.919556%)" offset="0.433594"/><stop stop-opacity="1" stop-color="rgb(86.654663%, 70.646667%, 27.19574%)" offset="0.4375"/><stop stop-opacity="1" stop-color="rgb(86.787415%, 70.895386%, 27.470398%)" offset="0.441406"/><stop stop-opacity="1" stop-color="rgb(86.921692%, 71.14563%, 27.746582%)" offset="0.445313"/><stop stop-opacity="1" stop-color="rgb(87.054443%, 71.394348%, 28.02124%)" offset="0.449219"/><stop stop-opacity="1" stop-color="rgb(87.188721%, 71.643066%, 28.297424%)" offset="0.453125"/><stop stop-opacity="1" stop-color="rgb(87.321472%, 71.891785%, 28.573608%)" offset="0.457031"/><stop stop-opacity="1" stop-color="rgb(87.454224%, 72.140503%, 28.849792%)" offset="0.460938"/><stop stop-opacity="1" stop-color="rgb(87.586975%, 72.389221%, 29.124451%)" offset="0.464844"/><stop stop-opacity="1" stop-color="rgb(87.721252%, 72.639465%, 29.400635%)" offset="0.46875"/><stop stop-opacity="1" stop-color="rgb(87.854004%, 72.888184%, 29.675293%)" offset="0.472656"/><stop stop-opacity="1" stop-color="rgb(87.988281%, 73.136902%, 29.951477%)" offset="0.476562"/><stop stop-opacity="1" stop-color="rgb(88.121033%, 73.38562%, 30.227661%)" offset="0.480469"/><stop stop-opacity="1" stop-color="rgb(88.25531%, 73.635864%, 30.503845%)" offset="0.484375"/><stop stop-opacity="1" stop-color="rgb(88.388062%, 73.884583%, 30.778503%)" offset="0.488281"/><stop stop-opacity="1" stop-color="rgb(88.522339%, 74.133301%, 31.054688%)" offset="0.492188"/><stop stop-opacity="1" stop-color="rgb(88.65509%, 74.382019%, 31.329346%)" offset="0.496094"/><stop stop-opacity="1" stop-color="rgb(88.789368%, 74.630737%, 31.60553%)" offset="0.5"/><stop stop-opacity="1" stop-color="rgb(88.922119%, 74.879456%, 31.881714%)" offset="0.503906"/><stop stop-opacity="1" stop-color="rgb(89.056396%, 75.1297%, 32.157898%)" offset="0.507812"/><stop stop-opacity="1" stop-color="rgb(89.189148%, 75.378418%, 32.432556%)" offset="0.511719"/><stop stop-opacity="1" stop-color="rgb(89.323425%, 75.627136%, 32.70874%)" offset="0.515625"/><stop stop-opacity="1" stop-color="rgb(89.456177%, 75.875854%, 32.983398%)" offset="0.519531"/><stop stop-opacity="1" stop-color="rgb(89.588928%, 76.126099%, 33.259583%)" offset="0.523438"/><stop stop-opacity="1" stop-color="rgb(89.72168%, 76.374817%, 33.535767%)" offset="0.527344"/><stop stop-opacity="1" stop-color="rgb(89.855957%, 76.623535%, 33.811951%)" offset="0.53125"/><stop stop-opacity="1" stop-color="rgb(89.988708%, 76.872253%, 34.086609%)" offset="0.535156"/><stop stop-opacity="1" stop-color="rgb(90.122986%, 77.122498%, 34.362793%)" offset="0.539062"/><stop stop-opacity="1" stop-color="rgb(90.255737%, 77.371216%, 34.637451%)" offset="0.542969"/><stop stop-opacity="1" stop-color="rgb(90.390015%, 77.619934%, 34.913635%)" offset="0.546875"/><stop stop-opacity="1" stop-color="rgb(90.522766%, 77.868652%, 35.189819%)" offset="0.550781"/><stop stop-opacity="1" stop-color="rgb(90.657043%, 78.117371%, 35.466003%)" offset="0.554688"/><stop stop-opacity="1" stop-color="rgb(90.789795%, 78.366089%, 35.740662%)" offset="0.558594"/><stop stop-opacity="1" stop-color="rgb(90.924072%, 78.616333%, 36.016846%)" offset="0.5625"/><stop stop-opacity="1" stop-color="rgb(91.056824%, 78.865051%, 36.291504%)" offset="0.566406"/><stop stop-opacity="1" stop-color="rgb(91.191101%, 79.11377%, 36.567688%)" offset="0.570312"/><stop stop-opacity="1" stop-color="rgb(91.323853%, 79.362488%, 36.843872%)" offset="0.574219"/><stop stop-opacity="1" stop-color="rgb(91.45813%, 79.612732%, 37.120056%)" offset="0.578125"/><stop stop-opacity="1" stop-color="rgb(91.590881%, 79.86145%, 37.394714%)" offset="0.582031"/><stop stop-opacity="1" stop-color="rgb(91.723633%, 80.110168%, 37.670898%)" offset="0.585938"/><stop stop-opacity="1" stop-color="rgb(91.856384%, 80.358887%, 37.945557%)" offset="0.589844"/><stop stop-opacity="1" stop-color="rgb(91.990662%, 80.607605%, 38.221741%)" offset="0.59375"/><stop stop-opacity="1" stop-color="rgb(92.123413%, 80.856323%, 38.497925%)" offset="0.597656"/><stop stop-opacity="1" stop-color="rgb(92.25769%, 81.106567%, 38.774109%)" offset="0.601563"/><stop stop-opacity="1" stop-color="rgb(92.390442%, 81.355286%, 39.048767%)" offset="0.605469"/><stop stop-opacity="1" stop-color="rgb(92.524719%, 81.604004%, 39.324951%)" offset="0.609375"/><stop stop-opacity="1" stop-color="rgb(92.657471%, 81.852722%, 39.599609%)" offset="0.613281"/><stop stop-opacity="1" stop-color="rgb(92.791748%, 82.102966%, 39.875793%)" offset="0.617188"/><stop stop-opacity="1" stop-color="rgb(92.9245%, 82.351685%, 40.151978%)" offset="0.621094"/><stop stop-opacity="1" stop-color="rgb(93.058777%, 82.600403%, 40.428162%)" offset="0.625"/><stop stop-opacity="1" stop-color="rgb(93.191528%, 82.849121%, 40.70282%)" offset="0.628906"/><stop stop-opacity="1" stop-color="rgb(93.325806%, 83.099365%, 40.979004%)" offset="0.632812"/><stop stop-opacity="1" stop-color="rgb(93.458557%, 83.348083%, 41.253662%)" offset="0.636719"/><stop stop-opacity="1" stop-color="rgb(93.592834%, 83.596802%, 41.529846%)" offset="0.640625"/><stop stop-opacity="1" stop-color="rgb(93.725586%, 83.84552%, 41.80603%)" offset="0.644531"/><stop stop-opacity="1" stop-color="rgb(93.858337%, 84.094238%, 42.082214%)" offset="0.648438"/><stop stop-opacity="1" stop-color="rgb(93.991089%, 84.342957%, 42.356873%)" offset="0.652344"/><stop stop-opacity="1" stop-color="rgb(94.125366%, 84.593201%, 42.633057%)" offset="0.65625"/><stop stop-opacity="1" stop-color="rgb(94.258118%, 84.841919%, 42.907715%)" offset="0.660156"/><stop stop-opacity="1" stop-color="rgb(94.392395%, 85.090637%, 43.183899%)" offset="0.664062"/><stop stop-opacity="1" stop-color="rgb(94.525146%, 85.339355%, 43.460083%)" offset="0.667969"/><stop stop-opacity="1" stop-color="rgb(94.659424%, 85.5896%, 43.736267%)" offset="0.671875"/><stop stop-opacity="1" stop-color="rgb(94.792175%, 85.838318%, 44.010925%)" offset="0.675781"/><stop stop-opacity="1" stop-color="rgb(94.926453%, 86.087036%, 44.287109%)" offset="0.679688"/><stop stop-opacity="1" stop-color="rgb(95.059204%, 86.335754%, 44.561768%)" offset="0.683594"/><stop stop-opacity="1" stop-color="rgb(95.193481%, 86.585999%, 44.837952%)" offset="0.6875"/><stop stop-opacity="1" stop-color="rgb(95.326233%, 86.834717%, 45.114136%)" offset="0.691406"/><stop stop-opacity="1" stop-color="rgb(95.46051%, 87.083435%, 45.39032%)" offset="0.695313"/><stop stop-opacity="1" stop-color="rgb(95.593262%, 87.332153%, 45.664978%)" offset="0.699219"/><stop stop-opacity="1" stop-color="rgb(95.727539%, 87.580872%, 45.941162%)" offset="0.703125"/><stop stop-opacity="1" stop-color="rgb(95.860291%, 87.82959%, 46.21582%)" offset="0.707031"/><stop stop-opacity="1" stop-color="rgb(95.993042%, 88.079834%, 46.492004%)" offset="0.710938"/><stop stop-opacity="1" stop-color="rgb(96.131897%, 88.320923%, 46.774292%)" offset="0.714844"/><stop stop-opacity="1" stop-color="rgb(96.272278%, 88.562012%, 47.05658%)" offset="0.71875"/><stop stop-opacity="1" stop-color="rgb(96.414185%, 88.800049%, 47.341919%)" offset="0.722656"/><stop stop-opacity="1" stop-color="rgb(96.556091%, 89.038086%, 47.627258%)" offset="0.726562"/><stop stop-opacity="1" stop-color="rgb(96.697998%, 89.276123%, 47.911072%)" offset="0.730469"/><stop stop-opacity="1" stop-color="rgb(96.839905%, 89.51416%, 48.196411%)" offset="0.734375"/><stop stop-opacity="1" stop-color="rgb(96.981812%, 89.750671%, 48.48175%)" offset="0.738281"/><stop stop-opacity="1" stop-color="rgb(97.123718%, 89.988708%, 48.76709%)" offset="0.742188"/><stop stop-opacity="1" stop-color="rgb(97.117615%, 89.978027%, 48.754883%)" offset="0.75"/><stop stop-opacity="1" stop-color="rgb(96.987915%, 89.759827%, 48.493958%)" offset="0.753906"/><stop stop-opacity="1" stop-color="rgb(96.864319%, 89.553833%, 48.245239%)" offset="0.757812"/><stop stop-opacity="1" stop-color="rgb(96.740723%, 89.346313%, 47.996521%)" offset="0.761719"/><stop stop-opacity="1" stop-color="rgb(96.617126%, 89.138794%, 47.749329%)" offset="0.765625"/><stop stop-opacity="1" stop-color="rgb(96.49353%, 88.931274%, 47.50061%)" offset="0.769531"/><stop stop-opacity="1" stop-color="rgb(96.369934%, 88.725281%, 47.251892%)" offset="0.773438"/><stop stop-opacity="1" stop-color="rgb(96.246338%, 88.517761%, 47.003174%)" offset="0.777344"/><stop stop-opacity="1" stop-color="rgb(96.122742%, 88.310242%, 46.755981%)" offset="0.78125"/><stop stop-opacity="1" stop-color="rgb(95.913696%, 87.902832%, 46.287537%)" offset="0.785156"/><stop stop-opacity="1" stop-color="rgb(95.706177%, 87.495422%, 45.819092%)" offset="0.789062"/><stop stop-opacity="1" stop-color="rgb(95.480347%, 87.045288%, 45.304871%)" offset="0.792969"/><stop stop-opacity="1" stop-color="rgb(95.256042%, 86.59668%, 44.790649%)" offset="0.796875"/><stop stop-opacity="1" stop-color="rgb(95.030212%, 86.146545%, 44.276428%)" offset="0.800781"/><stop stop-opacity="1" stop-color="rgb(94.805908%, 85.697937%, 43.762207%)" offset="0.804687"/><stop stop-opacity="1" stop-color="rgb(94.580078%, 85.247803%, 43.24646%)" offset="0.808594"/><stop stop-opacity="1" stop-color="rgb(94.355774%, 84.797668%, 42.732239%)" offset="0.8125"/><stop stop-opacity="1" stop-color="rgb(94.129944%, 84.347534%, 42.218018%)" offset="0.816406"/><stop stop-opacity="1" stop-color="rgb(93.90564%, 83.898926%, 41.703796%)" offset="0.820312"/><stop stop-opacity="1" stop-color="rgb(93.67981%, 83.448792%, 41.189575%)" offset="0.824219"/><stop stop-opacity="1" stop-color="rgb(93.453979%, 83.000183%, 40.675354%)" offset="0.828125"/><stop stop-opacity="1" stop-color="rgb(93.12439%, 82.37915%, 39.996338%)" offset="0.832031"/><stop stop-opacity="1" stop-color="rgb(92.7948%, 81.759644%, 39.318848%)" offset="0.835938"/><stop stop-opacity="1" stop-color="rgb(92.424011%, 81.072998%, 38.577271%)" offset="0.839844"/><stop stop-opacity="1" stop-color="rgb(92.053223%, 80.387878%, 37.835693%)" offset="0.84375"/><stop stop-opacity="1" stop-color="rgb(91.682434%, 79.701233%, 37.09259%)" offset="0.847656"/><stop stop-opacity="1" stop-color="rgb(91.311646%, 79.016113%, 36.351013%)" offset="0.851562"/><stop stop-opacity="1" stop-color="rgb(90.940857%, 78.329468%, 35.609436%)" offset="0.855469"/><stop stop-opacity="1" stop-color="rgb(90.571594%, 77.644348%, 34.867859%)" offset="0.859375"/><stop stop-opacity="1" stop-color="rgb(90.200806%, 76.959229%, 34.126282%)" offset="0.863281"/><stop stop-opacity="1" stop-color="rgb(89.830017%, 76.274109%, 33.384705%)" offset="0.867188"/><stop stop-opacity="1" stop-color="rgb(89.459229%, 75.587463%, 32.641602%)" offset="0.871094"/><stop stop-opacity="1" stop-color="rgb(89.08844%, 74.902344%, 31.900024%)" offset="0.875"/><stop stop-opacity="1" stop-color="rgb(88.717651%, 74.215698%, 31.158447%)" offset="0.878906"/><stop stop-opacity="1" stop-color="rgb(88.348389%, 73.530579%, 30.41687%)" offset="0.882812"/><stop stop-opacity="1" stop-color="rgb(87.87384%, 72.683716%, 29.444885%)" offset="0.886719"/><stop stop-opacity="1" stop-color="rgb(87.399292%, 71.836853%, 28.4729%)" offset="0.890625"/><stop stop-opacity="1" stop-color="rgb(86.906433%, 70.960999%, 27.461243%)" offset="0.894531"/><stop stop-opacity="1" stop-color="rgb(86.4151%, 70.08667%, 26.451111%)" offset="0.898437"/><stop stop-opacity="1" stop-color="rgb(85.922241%, 69.212341%, 25.439453%)" offset="0.902344"/><stop stop-opacity="1" stop-color="rgb(85.430908%, 68.338013%, 24.427795%)" offset="0.90625"/><stop stop-opacity="1" stop-color="rgb(84.938049%, 67.462158%, 23.416138%)" offset="0.910156"/><stop stop-opacity="1" stop-color="rgb(84.446716%, 66.58783%, 22.40448%)" offset="0.914062"/><stop stop-opacity="1" stop-color="rgb(83.953857%, 65.713501%, 21.392822%)" offset="0.917969"/><stop stop-opacity="1" stop-color="rgb(83.462524%, 64.839172%, 20.38269%)" offset="0.921875"/><stop stop-opacity="1" stop-color="rgb(82.969666%, 63.963318%, 19.371033%)" offset="0.925781"/><stop stop-opacity="1" stop-color="rgb(82.478333%, 63.088989%, 18.359375%)" offset="0.929688"/><stop stop-opacity="1" stop-color="rgb(81.985474%, 62.213135%, 17.347717%)" offset="0.933594"/><stop stop-opacity="1" stop-color="rgb(81.494141%, 61.338806%, 16.337585%)" offset="0.9375"/><stop stop-opacity="1" stop-color="rgb(81.007385%, 60.404968%, 15.30304%)" offset="0.941406"/><stop stop-opacity="1" stop-color="rgb(80.522156%, 59.47113%, 14.27002%)" offset="0.945312"/><stop stop-opacity="1" stop-color="rgb(80.038452%, 58.508301%, 13.224792%)" offset="0.949219"/><stop stop-opacity="1" stop-color="rgb(79.556274%, 57.546997%, 12.181091%)" offset="0.953125"/><stop stop-opacity="1" stop-color="rgb(79.264832%, 56.965637%, 11.555481%)" offset="0.957031"/><stop stop-opacity="1" stop-color="rgb(78.974915%, 56.384277%, 10.931396%)" offset="0.960938"/><stop stop-opacity="1" stop-color="rgb(79.301453%, 57.026672%, 11.64856%)" offset="0.964844"/><stop stop-opacity="1" stop-color="rgb(79.627991%, 57.669067%, 12.367249%)" offset="0.96875"/><stop stop-opacity="1" stop-color="rgb(79.954529%, 58.311462%, 13.085938%)" offset="0.972656"/><stop stop-opacity="1" stop-color="rgb(80.281067%, 58.953857%, 13.804626%)" offset="0.976562"/><stop stop-opacity="1" stop-color="rgb(80.607605%, 59.596252%, 14.523315%)" offset="0.980469"/><stop stop-opacity="1" stop-color="rgb(80.935669%, 60.238647%, 15.242004%)" offset="0.984375"/><stop stop-opacity="1" stop-color="rgb(81.262207%, 60.881042%, 15.959167%)" offset="0.988281"/><stop stop-opacity="1" stop-color="rgb(81.588745%, 61.523438%, 16.677856%)" offset="0.992188"/><stop stop-opacity="1" stop-color="rgb(81.915283%, 62.165833%, 17.396545%)" offset="0.996094"/><stop stop-opacity="1" stop-color="rgb(82.241821%, 62.808228%, 18.115234%)" offset="1"/></linearGradient><clipPath id="649d297685"><path d="M 1415.863281 944.375 L 1431.878906 944.375 L 1431.878906 948.578125 L 1415.863281 948.578125 Z M 1427.675781 948.578125 L 1431.878906 948.578125 L 1431.878906 956.179688 L 1427.675781 956.179688 Z M 1415.863281 948.578125 L 1420.070312 948.578125 L 1420.070312 956.179688 L 1415.863281 956.179688 Z M 1415.863281 956.179688 L 1431.878906 956.179688 L 1431.878906 960.382812 L 1415.863281 960.382812 Z M 1415.863281 956.179688 " clip-rule="nonzero"/></clipPath><linearGradient x1="3220.652862" gradientTransform="matrix(0.43907, 0, 0, 0.438916, 0.654472, 0.251437)" y1="2154.652596" x2="3262.217036" gradientUnits="userSpaceOnUse" y2="2183.877406" id="5ba5f526bb"><stop stop-opacity="1" stop-color="rgb(79.025269%, 56.483459%, 11.04126%)" offset="0"/><stop stop-opacity="1" stop-color="rgb(79.090881%, 56.613159%, 11.186218%)" offset="0.125"/><stop stop-opacity="1" stop-color="rgb(79.222107%, 56.872559%, 11.476135%)" offset="0.25"/><stop stop-opacity="1" stop-color="rgb(79.353333%, 57.131958%, 11.766052%)" offset="0.375"/><stop stop-opacity="1" stop-color="rgb(79.486084%, 57.389832%, 12.055969%)" offset="0.412845"/><stop stop-opacity="1" stop-color="rgb(79.551697%, 57.519531%, 12.200928%)" offset="0.5"/><stop stop-opacity="1" stop-color="rgb(79.61731%, 57.649231%, 12.345886%)" offset="0.587155"/><stop stop-opacity="1" stop-color="rgb(79.684448%, 57.778931%, 12.490845%)" offset="0.625"/><stop stop-opacity="1" stop-color="rgb(79.750061%, 57.90863%, 12.635803%)" offset="0.75"/><stop stop-opacity="1" stop-color="rgb(79.881287%, 58.16803%, 12.92572%)" offset="0.875"/><stop stop-opacity="1" stop-color="rgb(80.014038%, 58.427429%, 13.215637%)" offset="1"/></linearGradient><clipPath id="003cf84b98"><path d="M 33.527344 944.375 L 49.539062 944.375 L 49.539062 948.578125 L 33.527344 948.578125 Z M 45.335938 948.578125 L 49.539062 948.578125 L 49.539062 956.179688 L 45.335938 956.179688 Z M 33.527344 948.578125 L 37.730469 948.578125 L 37.730469 956.179688 L 33.527344 956.179688 Z M 33.527344 956.179688 L 49.539062 956.179688 L 49.539062 960.382812 L 33.527344 960.382812 Z M 33.527344 956.179688 " clip-rule="nonzero"/></clipPath><linearGradient x1="72.32018" gradientTransform="matrix(0.43907, 0, 0, 0.438916, 0.654472, 0.251437)" y1="2154.656415" x2="113.884421" gradientUnits="userSpaceOnUse" y2="2183.881274" id="9d7553848c"><stop stop-opacity="1" stop-color="rgb(84.52301%, 66.691589%, 22.979736%)" offset="0"/><stop stop-opacity="1" stop-color="rgb(84.507751%, 66.662598%, 22.937012%)" offset="0.412844"/><stop stop-opacity="1" stop-color="rgb(84.494019%, 66.635132%, 22.894287%)" offset="0.5"/><stop stop-opacity="1" stop-color="rgb(84.47876%, 66.60614%, 22.851562%)" offset="0.587156"/><stop stop-opacity="1" stop-color="rgb(84.465027%, 66.577148%, 22.808838%)" offset="1"/></linearGradient><clipPath id="3682f9fa5b"><path d="M 1415.863281 32.988281 L 1431.878906 32.988281 L 1431.878906 37.191406 L 1415.863281 37.191406 Z M 1427.675781 37.191406 L 1431.878906 37.191406 L 1431.878906 44.792969 L 1427.675781 44.792969 Z M 1415.863281 37.191406 L 1420.070312 37.191406 L 1420.070312 44.792969 L 1415.863281 44.792969 Z M 1415.863281 44.792969 L 1431.878906 44.792969 L 1431.878906 48.996094 L 1415.863281 48.996094 Z M 1415.863281 44.792969 " clip-rule="nonzero"/></clipPath><linearGradient x1="3220.655536" gradientTransform="matrix(0.43907, 0, 0, 0.438916, 0.654472, 0.251437)" y1="78.208789" x2="3262.21971" gradientUnits="userSpaceOnUse" y2="107.433601" id="fb57c05698"><stop stop-opacity="1" stop-color="rgb(94.42749%, 85.15625%, 43.257141%)" offset="0"/><stop stop-opacity="1" stop-color="rgb(94.480896%, 85.256958%, 43.36853%)" offset="0.25"/><stop stop-opacity="1" stop-color="rgb(94.589233%, 85.458374%, 43.591309%)" offset="0.412845"/><stop stop-opacity="1" stop-color="rgb(94.642639%, 85.559082%, 43.702698%)" offset="0.5"/><stop stop-opacity="1" stop-color="rgb(94.696045%, 85.65979%, 43.814087%)" offset="0.587155"/><stop stop-opacity="1" stop-color="rgb(94.750977%, 85.760498%, 43.925476%)" offset="0.75"/><stop stop-opacity="1" stop-color="rgb(94.804382%, 85.85968%, 44.035339%)" offset="1"/></linearGradient><clipPath id="d61b32d540"><path d="M 33.527344 32.988281 L 49.539062 32.988281 L 49.539062 37.191406 L 33.527344 37.191406 Z M 45.335938 37.191406 L 49.539062 37.191406 L 49.539062 44.792969 L 45.335938 44.792969 Z M 33.527344 37.191406 L 37.730469 37.191406 L 37.730469 44.792969 L 33.527344 44.792969 Z M 33.527344 44.792969 L 49.539062 44.792969 L 49.539062 48.996094 L 33.527344 48.996094 Z M 33.527344 44.792969 " clip-rule="nonzero"/></clipPath><clipPath id="291b0616cc"><path d="M 0.613281 0.25 L 1464.820312 0.25 L 1464.820312 993.125 L 0.613281 993.125 Z M 0.613281 0.25 " clip-rule="nonzero"/></clipPath><clipPath id="9951cbac77"><path d="M 1460.550781 960.339844 L 1452.375 960.339844 L 1452.375 748.980469 L 1448.167969 748.980469 L 1448.167969 960.339844 L 1442.039062 960.339844 L 1442.039062 785.746094 L 1442.023438 785.746094 L 1442.023438 207.625 L 1442.039062 207.625 L 1442.039062 33.03125 L 1448.167969 33.03125 L 1448.167969 244.390625 L 1452.375 244.390625 L 1452.375 33.03125 L 1460.550781 33.03125 L 1460.550781 265.1875 L 1464.753906 265.1875 L 1464.753906 28.828125 L 1452.378906 28.828125 L 1452.378906 26.996094 L 1464.636719 26.996094 L 1464.636719 22.789062 L 1452.378906 22.789062 L 1452.378906 20.980469 L 1464.753906 20.980469 L 1464.753906 0.25 L 1444.019531 0.25 L 1444.019531 12.59375 L 1442.039062 12.59375 L 1442.039062 0.742188 L 1437.832031 0.742188 L 1437.832031 12.59375 L 1436.269531 12.59375 L 1436.269531 0.25 L 1199.832031 0.25 L 1199.832031 4.457031 L 1432.070312 4.457031 L 1432.070312 12.59375 L 1215.40625 12.59375 L 1215.40625 16.796875 L 1432.070312 16.796875 L 1432.070312 23.039062 L 33.34375 23.039062 L 33.34375 16.796875 L 250.007812 16.796875 L 250.007812 12.59375 L 33.34375 12.59375 L 33.34375 4.457031 L 265.582031 4.457031 L 265.582031 0.25 L 29.140625 0.25 L 29.140625 12.59375 L 27.578125 12.59375 L 27.578125 0.742188 L 23.371094 0.742188 L 23.371094 12.59375 L 21.390625 12.59375 L 21.390625 0.25 L 0.65625 0.25 L 0.65625 20.980469 L 13.03125 20.980469 L 13.03125 22.789062 L 0.777344 22.789062 L 0.777344 26.996094 L 13.035156 26.996094 L 13.035156 28.828125 L 0.65625 28.828125 L 0.65625 265.1875 L 4.859375 265.1875 L 4.859375 33.03125 L 13.035156 33.03125 L 13.035156 244.390625 L 17.242188 244.390625 L 17.242188 33.03125 L 23.082031 33.03125 L 23.082031 960.335938 L 17.242188 960.335938 L 17.242188 748.976562 L 13.035156 748.976562 L 13.035156 960.335938 L 4.859375 960.335938 L 4.859375 728.179688 L 0.65625 728.179688 L 0.65625 964.539062 L 13.03125 964.539062 L 13.03125 966.371094 L 0.777344 966.371094 L 0.777344 970.578125 L 13.035156 970.578125 L 13.035156 972.386719 L 0.65625 972.386719 L 0.65625 993.117188 L 21.390625 993.117188 L 21.390625 980.773438 L 23.371094 980.773438 L 23.371094 992.625 L 27.578125 992.625 L 27.578125 980.773438 L 29.140625 980.773438 L 29.140625 993.117188 L 265.574219 993.117188 L 265.574219 988.910156 L 33.34375 988.910156 L 33.34375 980.773438 L 250.007812 980.773438 L 250.007812 976.570312 L 33.34375 976.570312 L 33.34375 970.234375 L 1432.066406 970.234375 L 1432.066406 976.570312 L 1215.402344 976.570312 L 1215.402344 980.773438 L 1432.066406 980.773438 L 1432.066406 988.910156 L 1199.828125 988.910156 L 1199.828125 993.117188 L 1436.265625 993.117188 L 1436.265625 980.773438 L 1437.828125 980.773438 L 1437.828125 992.625 L 1442.035156 992.625 L 1442.035156 980.773438 L 1444.015625 980.773438 L 1444.015625 993.117188 L 1464.75 993.117188 L 1464.75 972.386719 L 1452.375 972.386719 L 1452.375 970.578125 L 1464.632812 970.578125 L 1464.632812 966.371094 L 1452.375 966.371094 L 1452.375 964.539062 L 1464.75 964.539062 L 1464.75 728.179688 L 1460.542969 728.179688 Z M 1448.21875 4.457031 L 1460.550781 4.457031 L 1460.550781 16.777344 L 1452.371094 16.777344 L 1452.371094 12.597656 L 1448.21875 12.597656 Z M 1442.039062 16.804688 L 1444.019531 16.804688 L 1444.019531 20.980469 L 1448.167969 20.980469 L 1448.167969 22.792969 L 1442.039062 22.792969 Z M 1442.039062 27.53125 L 1442.039062 26.996094 L 1448.167969 26.996094 L 1448.167969 28.828125 L 1442.039062 28.828125 Z M 17.183594 12.59375 L 13.035156 12.59375 L 13.035156 16.773438 L 4.859375 16.773438 L 4.859375 4.457031 L 17.191406 4.457031 L 17.191406 12.59375 Z M 33.347656 965.53125 L 33.347656 964.546875 L 33.355469 964.546875 L 33.355469 960.339844 L 27.789062 960.339844 L 27.789062 33.03125 L 33.351562 33.03125 L 33.351562 28.824219 L 33.34375 28.824219 L 33.34375 27.746094 L 1432.058594 27.746094 L 1432.058594 28.824219 L 1432.050781 28.824219 L 1432.050781 33.03125 L 1437.308594 33.03125 L 1437.308594 960.335938 L 1432.050781 960.335938 L 1432.050781 964.542969 L 1432.058594 964.542969 L 1432.058594 965.523438 L 33.347656 965.523438 Z M 27.789062 27.75 L 29.140625 27.75 L 29.140625 28.828125 L 27.789062 28.828125 Z M 27.789062 965.53125 L 27.789062 964.546875 L 29.140625 964.546875 L 29.140625 965.53125 Z M 1437.308594 27.75 L 1437.308594 28.828125 L 1436.265625 28.828125 L 1436.265625 27.75 Z M 1436.265625 964.546875 L 1437.308594 964.546875 L 1437.308594 965.53125 L 1436.265625 965.53125 Z M 1436.265625 16.796875 L 1437.828125 16.796875 L 1437.828125 23.039062 L 1436.265625 23.039062 Z M 27.578125 16.796875 L 29.140625 16.796875 L 29.140625 23.039062 L 27.578125 23.039062 Z M 17.238281 20.980469 L 21.386719 20.980469 L 21.386719 16.804688 L 23.367188 16.804688 L 23.367188 22.796875 L 17.238281 22.796875 Z M 17.238281 28.828125 L 17.238281 26.996094 L 23.078125 26.996094 L 23.078125 28.828125 Z M 17.238281 964.546875 L 23.078125 964.546875 L 23.078125 966.382812 L 17.238281 966.382812 Z M 17.183594 988.914062 L 4.859375 988.914062 L 4.859375 976.59375 L 13.039062 976.59375 L 13.039062 980.773438 L 17.191406 980.773438 L 17.191406 988.914062 Z M 23.367188 976.574219 L 21.386719 976.574219 L 21.386719 972.394531 L 17.238281 972.394531 L 17.238281 970.582031 L 23.367188 970.582031 Z M 29.140625 976.578125 L 27.578125 976.578125 L 27.578125 970.242188 L 29.140625 970.242188 Z M 1437.832031 976.578125 L 1436.269531 976.578125 L 1436.269531 970.242188 L 1437.832031 970.242188 Z M 1448.167969 972.390625 L 1444.019531 972.390625 L 1444.019531 976.570312 L 1442.039062 976.570312 L 1442.039062 970.574219 L 1448.167969 970.574219 Z M 1448.167969 966.375 L 1442.039062 966.375 L 1442.039062 964.546875 L 1448.167969 964.546875 Z M 1460.550781 976.597656 L 1460.550781 988.917969 L 1448.21875 988.917969 L 1448.21875 980.78125 L 1452.367188 980.78125 L 1452.367188 976.605469 L 1460.550781 976.605469 Z M 1460.550781 976.597656 " clip-rule="nonzero"/></clipPath><clipPath id="c638b42fa7"><path d="M 1415.863281 944.375 L 1431.878906 944.375 L 1431.878906 948.578125 L 1415.863281 948.578125 Z M 1427.675781 948.578125 L 1431.878906 948.578125 L 1431.878906 956.179688 L 1427.675781 956.179688 Z M 1415.863281 948.578125 L 1420.070312 948.578125 L 1420.070312 956.179688 L 1415.863281 956.179688 Z M 1415.863281 956.179688 L 1431.878906 956.179688 L 1431.878906 960.382812 L 1415.863281 960.382812 Z M 1415.863281 956.179688 " clip-rule="nonzero"/></clipPath><clipPath id="43403b498b"><path d="M 33.527344 944.375 L 49.539062 944.375 L 49.539062 948.578125 L 33.527344 948.578125 Z M 45.335938 948.578125 L 49.539062 948.578125 L 49.539062 956.179688 L 45.335938 956.179688 Z M 33.527344 948.578125 L 37.730469 948.578125 L 37.730469 956.179688 L 33.527344 956.179688 Z M 33.527344 956.179688 L 49.539062 956.179688 L 49.539062 960.382812 L 33.527344 960.382812 Z M 33.527344 956.179688 " clip-rule="nonzero"/></clipPath><clipPath id="1155628905"><path d="M 1415.863281 32.988281 L 1431.878906 32.988281 L 1431.878906 37.191406 L 1415.863281 37.191406 Z M 1427.675781 37.191406 L 1431.878906 37.191406 L 1431.878906 44.792969 L 1427.675781 44.792969 Z M 1415.863281 37.191406 L 1420.070312 37.191406 L 1420.070312 44.792969 L 1415.863281 44.792969 Z M 1415.863281 44.792969 L 1431.878906 44.792969 L 1431.878906 48.996094 L 1415.863281 48.996094 Z M 1415.863281 44.792969 " clip-rule="nonzero"/></clipPath><clipPath id="7b19b3eca1"><rect x="0" width="1466" y="0" height="995"/></clipPath></defs><g transform="matrix(1, 0, 0, 1, 109, 98)"><g clip-path="url(#7b19b3eca1)"><g clip-path="url(#10d419b00c)"><path fill="#f8e67d" d="M 33.527344 32.988281 L 33.527344 48.996094 L 49.539062 48.996094 L 49.539062 32.988281 Z M 33.527344 32.988281 " fill-opacity="1" fill-rule="nonzero"/></g><g clip-path="url(#a114e56845)"><g clip-path="url(#712e5ed620)"><path fill="url(#d14efdf134)" d="M 0.65625 0.25 L 0.65625 993.117188 L 1464.753906 993.117188 L 1464.753906 0.25 Z M 0.65625 0.25 " fill-rule="nonzero"/></g></g><g clip-path="url(#649d297685)"><path fill="url(#5ba5f526bb)" d="M 1415.863281 944.375 L 1415.863281 960.382812 L 1431.878906 960.382812 L 1431.878906 944.375 Z M 1415.863281 944.375 " fill-rule="nonzero"/></g><g clip-path="url(#003cf84b98)"><path fill="url(#9d7553848c)" d="M 33.527344 944.375 L 33.527344 960.382812 L 49.539062 960.382812 L 49.539062 944.375 Z M 33.527344 944.375 " fill-rule="nonzero"/></g><g clip-path="url(#3682f9fa5b)"><path fill="url(#fb57c05698)" d="M 1415.863281 32.988281 L 1415.863281 48.996094 L 1431.878906 48.996094 L 1431.878906 32.988281 Z M 1415.863281 32.988281 " fill-rule="nonzero"/></g><g clip-path="url(#d61b32d540)"><path fill="#f8e67d" d="M 33.527344 32.988281 L 33.527344 48.996094 L 49.539062 48.996094 L 49.539062 32.988281 Z M 33.527344 32.988281 " fill-opacity="1" fill-rule="nonzero"/></g><g clip-path="url(#291b0616cc)"><g clip-path="url(#9951cbac77)"><path fill="url(#d14efdf134)" d="M 0.65625 0.25 L 0.65625 993.117188 L 1464.753906 993.117188 L 1464.753906 0.25 Z M 0.65625 0.25 " fill-rule="nonzero"/></g></g><g clip-path="url(#c638b42fa7)"><path fill="url(#5ba5f526bb)" d="M 1415.863281 944.375 L 1415.863281 960.382812 L 1431.878906 960.382812 L 1431.878906 944.375 Z M 1415.863281 944.375 " fill-rule="nonzero"/></g><g clip-path="url(#43403b498b)"><path fill="url(#9d7553848c)" d="M 33.527344 944.375 L 33.527344 960.382812 L 49.539062 960.382812 L 49.539062 944.375 Z M 33.527344 944.375 " fill-rule="nonzero"/></g><g clip-path="url(#1155628905)"><path fill="url(#fb57c05698)" d="M 1415.863281 32.988281 L 1415.863281 48.996094 L 1431.878906 48.996094 L 1431.878906 32.988281 Z M 1415.863281 32.988281 " fill-rule="nonzero"/></g></g></g></svg>